<?xml version="1.0" encoding="utf-8"?>
<!-- Generator: Adobe Illustrator 24.0.1, SVG Export Plug-In . SVG Version: 6.00 Build 0)  -->
<svg version="1.1" id="Layer_1" xmlns="http://www.w3.org/2000/svg" xmlns:xlink="http://www.w3.org/1999/xlink" x="0px" y="0px"
	 viewBox="0 0 57.86 45.35" style="enable-background:new 0 0 57.86 45.35;" xml:space="preserve">
<style type="text/css">
	.st0{fill:url(#SVGID_1_);}
	.st1{fill:#FFFFFF;}
</style>
<g>
	<linearGradient id="SVGID_1_" gradientUnits="userSpaceOnUse" x1="5.978" y1="45.5059" x2="54.0211" y2="-2.2783">
		<stop  offset="0" style="stop-color:#00AEEF"/>
		<stop  offset="1" style="stop-color:#8DC63F"/>
	</linearGradient>
	<path class="st0" d="M57.57,22.29c-3.45-1.08-5.96-4.31-5.96-8.12V5.67c0-3.13-2.54-5.67-5.67-5.67H11.92
		C8.79,0,6.25,2.54,6.25,5.67v8.5c0,3.81-2.51,7.04-5.96,8.12c-0.39,0.12-0.39,0.65,0,0.77c3.45,1.08,5.96,4.31,5.96,8.12v8.5
		c0,3.13,2.54,5.67,5.67,5.67h34.02c3.13,0,5.67-2.54,5.67-5.67v-8.51c0-3.81,2.51-7.04,5.96-8.12
		C57.96,22.94,57.96,22.41,57.57,22.29z"/>
	<g>
		<path class="st1" d="M41.39,34.32c0,1.33-1.25,2.46-2.69,2.46c-1.48,0-2.77-1.13-2.77-2.46V20.9l-4.45,8.74
			c-0.51,1.01-1.48,1.48-2.57,1.48c-1.05,0-2.03-0.47-2.54-1.48l-4.45-8.74v13.42c0,1.33-1.29,2.46-2.81,2.46
			c-1.48,0-2.65-1.13-2.65-2.46V11.15c0-1.48,1.21-2.57,2.81-2.57c1.25,0,2.22,0.51,2.73,1.52l6.94,13.77l6.94-13.81
			c0.55-1.13,1.6-1.48,2.69-1.48c1.6,0,2.81,1.17,2.81,2.57V34.32z"/>
	</g>
</g>
</svg>
