<?xml version="1.0" encoding="utf-8"?>
<!-- Generator: Adobe Illustrator 24.0.1, SVG Export Plug-In . SVG Version: 6.00 Build 0)  -->
<svg version="1.1" id="Layer_1" xmlns="http://www.w3.org/2000/svg" xmlns:xlink="http://www.w3.org/1999/xlink" x="0px" y="0px"
	 viewBox="0 0 40 40" style="enable-background:new 0 0 40 40;" xml:space="preserve">
<style type="text/css">
	.st0{fill:url(#SVGID_1_);}
	.st1{fill:#FFFFFF;}
</style>
<g>
	<linearGradient id="SVGID_1_" gradientUnits="userSpaceOnUse" x1="5.7195" y1="34.2035" x2="35.6109" y2="4.4733">
		<stop  offset="0" style="stop-color:#00ADEE"/>
		<stop  offset="1" style="stop-color:#8BC53F"/>
	</linearGradient>
	<path class="st0" d="M37.82,19.76c-2.15-0.67-3.71-2.68-3.71-5.05V9.42c0-1.95-1.58-3.53-3.53-3.53H9.42
		c-1.95,0-3.53,1.58-3.53,3.53v5.29c0,2.37-1.56,4.38-3.71,5.05c-0.24,0.08-0.24,0.41,0,0.48c2.15,0.67,3.71,2.68,3.71,5.05v5.29
		c0,1.95,1.58,3.53,3.53,3.53h21.16c1.95,0,3.53-1.58,3.53-3.53v-5.29c0-2.37,1.56-4.38,3.71-5.05
		C38.06,20.16,38.06,19.84,37.82,19.76z"/>
	<g>
		<path class="st1" d="M27.75,27.24c0,0.83-0.78,1.53-1.67,1.53c-0.92,0-1.72-0.7-1.72-1.53V18.9l-2.77,5.44
			c-0.32,0.63-0.92,0.92-1.6,0.92c-0.66,0-1.26-0.29-1.58-0.92l-2.77-5.44v8.35c0,0.83-0.8,1.53-1.75,1.53
			c-0.92,0-1.65-0.7-1.65-1.53V12.83c0-0.92,0.75-1.6,1.75-1.6c0.78,0,1.38,0.32,1.7,0.95l4.32,8.57l4.32-8.59
			c0.34-0.7,1-0.92,1.67-0.92c1,0,1.75,0.73,1.75,1.6V27.24z"/>
	</g>
</g>
</svg>